<svg width="330" height="124" viewBox="0 0 330 124" fill="none" xmlns="http://www.w3.org/2000/svg">
<path d="M323.341 94.2233C320.667 94.2233 318.346 96.1328 317.286 98.8778H260.933L251.448 88.1367H211.692H196.355V84.4966H209.826L206.9 78.768H280.255C281.264 81.513 283.585 83.4225 286.309 83.4225C289.942 83.4225 292.919 79.9018 292.919 75.6054C292.919 71.3089 289.942 67.7883 286.309 67.7883C283.636 67.7883 281.315 69.6978 280.255 72.4427H203.62L193.53 52.8104H224.86L242.367 32.5813H293.373C294.382 35.3263 296.702 37.2358 299.427 37.2358C303.059 37.2358 306.036 33.7151 306.036 29.4187C306.036 25.1222 303.059 21.6015 299.427 21.6015C296.753 21.6015 294.432 23.5111 293.373 26.256H240.197L222.691 46.4851H222.338H190.301H180.261V43.0837H188.535L166.438 0L150.041 31.9249L64.1232 31.8056C63.1647 28.8219 60.7935 26.7334 57.9682 26.7334C54.3357 26.7334 51.3591 30.2541 51.3591 34.5505C51.3591 38.847 54.3357 42.3677 57.9682 42.3677C60.4908 42.3677 62.7106 40.6371 63.8205 38.1906L146.762 38.3099H156.348V41.4726H145.148L140.355 50.8412H88.9956L80.7721 60.5679H31.0778C30.0183 57.9422 27.7481 56.1521 25.1246 56.1521C21.4921 56.1521 18.5155 59.6728 18.5155 63.9692C18.5155 68.2656 21.4921 71.7863 25.1246 71.7863C27.8994 71.7863 30.2706 69.7575 31.2292 66.8932H82.9415L91.2154 57.1665H91.5686H137.075H149.739V60.5679H135.31L115.785 98.6391H72.6494L55.7484 78.6487H12.5118C11.4524 76.0231 9.18208 74.2329 6.55863 74.2329C2.97661 74.2329 0 77.7536 0 82.05C0 86.3465 2.97661 89.8672 6.60908 89.8672C9.38389 89.8672 11.7551 87.8383 12.7137 84.974H53.5285L70.4296 104.964H112.506L102.718 124H125.32L133.342 108.366H126.178V104.964H135.108H161.241H161.292C162.25 107.829 164.622 109.858 167.396 109.858C171.029 109.858 174.006 106.337 174.006 102.04C174.006 97.744 171.029 94.2233 167.396 94.2233C164.773 94.2233 162.553 96.0135 161.443 98.6391H138.337L166.387 43.9788L179.152 68.8624H194.236V72.3831H180.968H171.13H170.928C169.869 69.6978 167.598 67.8479 164.924 67.8479C161.292 67.8479 158.315 71.3686 158.315 75.6651C158.315 79.9615 161.292 83.4822 164.924 83.4822C167.649 83.4822 170.02 81.513 170.978 78.7084H184.197L207.404 123.94H230.057L214.921 94.462H249.278L258.763 105.203H317.337C318.346 107.948 320.667 109.858 323.391 109.858C327.023 109.858 330 106.337 330 102.04C329.95 97.744 326.973 94.2233 323.341 94.2233Z" fill="#495D5E"/>
</svg>
